<mxfile host="Electron" modified="2023-10-03T18:29:26.335Z" agent="Mozilla/5.0 (Macintosh; Intel Mac OS X 10_15_7) AppleWebKit/537.36 (KHTML, like Gecko) draw.io/22.0.0 Chrome/114.0.5735.289 Electron/25.8.3 Safari/537.36" etag="e6CvG-iTHbOiWgJLyV8j" version="22.0.0" type="device">
  <diagram name="Page-1" id="RcsFwqiE_mqMil7ZwmxQ">
    <mxGraphModel dx="183" dy="732" grid="1" gridSize="10" guides="1" tooltips="1" connect="1" arrows="1" fold="1" page="1" pageScale="1" pageWidth="827" pageHeight="1169" background="none" math="0" shadow="1">
      <root>
        <mxCell id="0" />
        <mxCell id="1" parent="0" />
        <mxCell id="9jFAXQZW3_Cc163_eQy1-7" style="edgeStyle=orthogonalEdgeStyle;rounded=0;orthogonalLoop=1;jettySize=auto;html=1;entryX=1;entryY=0.5;entryDx=0;entryDy=0;fillColor=#f5f5f5;strokeColor=#666666;strokeWidth=2;dashed=1;" edge="1" parent="1" source="9jFAXQZW3_Cc163_eQy1-2" target="shnlzeoLwmylmNGCK-iD-4">
          <mxGeometry relative="1" as="geometry">
            <Array as="points" />
          </mxGeometry>
        </mxCell>
        <mxCell id="9jFAXQZW3_Cc163_eQy1-14" style="edgeStyle=orthogonalEdgeStyle;rounded=0;orthogonalLoop=1;jettySize=auto;html=1;entryX=0.5;entryY=0;entryDx=0;entryDy=0;dashed=1;fillColor=#d5e8d4;strokeColor=#82b366;strokeWidth=2;" edge="1" parent="1" source="shnlzeoLwmylmNGCK-iD-4" target="9jFAXQZW3_Cc163_eQy1-13">
          <mxGeometry relative="1" as="geometry" />
        </mxCell>
        <mxCell id="shnlzeoLwmylmNGCK-iD-4" value="Configuration Client" style="rounded=1;whiteSpace=wrap;html=1;fillColor=#d5e8d4;strokeColor=#82b366;sketch=1;curveFitting=1;jiggle=2;gradientColor=#97d077;" parent="1" vertex="1">
          <mxGeometry x="1060" y="150" width="80" height="40" as="geometry" />
        </mxCell>
        <mxCell id="9jFAXQZW3_Cc163_eQy1-8" style="edgeStyle=orthogonalEdgeStyle;rounded=0;orthogonalLoop=1;jettySize=auto;html=1;exitX=0.5;exitY=0;exitDx=0;exitDy=0;entryX=0.5;entryY=1;entryDx=0;entryDy=0;" edge="1" parent="1" source="9jFAXQZW3_Cc163_eQy1-5" target="9jFAXQZW3_Cc163_eQy1-2">
          <mxGeometry relative="1" as="geometry" />
        </mxCell>
        <mxCell id="9jFAXQZW3_Cc163_eQy1-5" value="Operational Monitoring" style="ellipse;whiteSpace=wrap;html=1;aspect=fixed;fillColor=#dae8fc;strokeColor=#6c8ebf;labelPosition=center;verticalLabelPosition=bottom;align=center;verticalAlign=top;" vertex="1" parent="1">
          <mxGeometry x="1261" y="350" width="20" height="20" as="geometry" />
        </mxCell>
        <mxCell id="9jFAXQZW3_Cc163_eQy1-6" value="Store Data&amp;nbsp;" style="ellipse;whiteSpace=wrap;html=1;aspect=fixed;fillColor=#dae8fc;strokeColor=#6c8ebf;labelPosition=center;verticalLabelPosition=bottom;align=center;verticalAlign=top;" vertex="1" parent="1">
          <mxGeometry x="1480" y="130" width="20" height="20" as="geometry" />
        </mxCell>
        <mxCell id="9jFAXQZW3_Cc163_eQy1-9" value="" style="group" vertex="1" connectable="0" parent="1">
          <mxGeometry x="1201" y="60" width="140" height="220" as="geometry" />
        </mxCell>
        <mxCell id="9jFAXQZW3_Cc163_eQy1-12" value="" style="group" vertex="1" connectable="0" parent="9jFAXQZW3_Cc163_eQy1-9">
          <mxGeometry width="140" height="220" as="geometry" />
        </mxCell>
        <mxCell id="9jFAXQZW3_Cc163_eQy1-2" value="" style="rounded=1;whiteSpace=wrap;html=1;fillColor=#f5f5f5;fontColor=#333333;strokeColor=#666666;" vertex="1" parent="9jFAXQZW3_Cc163_eQy1-12">
          <mxGeometry width="140" height="220" as="geometry" />
        </mxCell>
        <mxCell id="shnlzeoLwmylmNGCK-iD-11" value="Monitoring service" style="rounded=1;whiteSpace=wrap;html=1;fillColor=#d5e8d4;strokeColor=#82b366;sketch=1;curveFitting=1;jiggle=2;gradientColor=#97d077;" parent="9jFAXQZW3_Cc163_eQy1-12" vertex="1">
          <mxGeometry x="30" y="170" width="80" height="40" as="geometry" />
        </mxCell>
        <mxCell id="9jFAXQZW3_Cc163_eQy1-1" value="Database" style="shape=cylinder3;whiteSpace=wrap;html=1;boundedLbl=1;backgroundOutline=1;size=15;fillColor=#d5e8d4;gradientColor=#97d077;strokeColor=#82b366;" vertex="1" parent="9jFAXQZW3_Cc163_eQy1-12">
          <mxGeometry x="40" y="40" width="60" height="80" as="geometry" />
        </mxCell>
        <mxCell id="9jFAXQZW3_Cc163_eQy1-4" value="Monitoring" style="text;html=1;strokeColor=none;fillColor=none;align=center;verticalAlign=middle;whiteSpace=wrap;rounded=0;" vertex="1" parent="9jFAXQZW3_Cc163_eQy1-12">
          <mxGeometry x="40" width="60" height="30" as="geometry" />
        </mxCell>
        <mxCell id="9jFAXQZW3_Cc163_eQy1-3" style="edgeStyle=orthogonalEdgeStyle;rounded=0;orthogonalLoop=1;jettySize=auto;html=1;entryX=0.5;entryY=1;entryDx=0;entryDy=0;entryPerimeter=0;dashed=1;strokeWidth=2;fillColor=#d5e8d4;strokeColor=#82b366;" edge="1" parent="9jFAXQZW3_Cc163_eQy1-12" source="shnlzeoLwmylmNGCK-iD-11" target="9jFAXQZW3_Cc163_eQy1-1">
          <mxGeometry relative="1" as="geometry" />
        </mxCell>
        <mxCell id="9jFAXQZW3_Cc163_eQy1-13" value="Download Configuration" style="ellipse;whiteSpace=wrap;html=1;aspect=fixed;fillColor=#dae8fc;strokeColor=#6c8ebf;labelPosition=center;verticalLabelPosition=bottom;align=center;verticalAlign=top;" vertex="1" parent="1">
          <mxGeometry x="1090" y="250" width="20" height="20" as="geometry" />
        </mxCell>
        <mxCell id="9jFAXQZW3_Cc163_eQy1-15" style="edgeStyle=orthogonalEdgeStyle;rounded=0;orthogonalLoop=1;jettySize=auto;html=1;fillColor=#dae8fc;strokeColor=#6c8ebf;strokeWidth=2;dashed=1;entryX=1;entryY=0.25;entryDx=0;entryDy=0;" edge="1" parent="1" source="9jFAXQZW3_Cc163_eQy1-6" target="shnlzeoLwmylmNGCK-iD-11">
          <mxGeometry relative="1" as="geometry">
            <mxPoint x="1360" y="240" as="targetPoint" />
            <Array as="points">
              <mxPoint x="1396" y="140" />
              <mxPoint x="1396" y="240" />
            </Array>
          </mxGeometry>
        </mxCell>
        <mxCell id="9jFAXQZW3_Cc163_eQy1-17" style="edgeStyle=orthogonalEdgeStyle;rounded=0;orthogonalLoop=1;jettySize=auto;html=1;entryX=1;entryY=0.75;entryDx=0;entryDy=0;fillColor=#dae8fc;strokeColor=#6c8ebf;strokeWidth=2;dashed=1;" edge="1" parent="1" source="9jFAXQZW3_Cc163_eQy1-16" target="shnlzeoLwmylmNGCK-iD-11">
          <mxGeometry relative="1" as="geometry" />
        </mxCell>
        <mxCell id="9jFAXQZW3_Cc163_eQy1-16" value="Query" style="ellipse;whiteSpace=wrap;html=1;aspect=fixed;fillColor=#dae8fc;strokeColor=#6c8ebf;labelPosition=center;verticalLabelPosition=bottom;align=center;verticalAlign=top;" vertex="1" parent="1">
          <mxGeometry x="1480" y="250" width="20" height="20" as="geometry" />
        </mxCell>
      </root>
    </mxGraphModel>
  </diagram>
</mxfile>
